<svg width="130" height="105" viewBox="0 0 130 105" fill="none" xmlns="http://www.w3.org/2000/svg">
<path fill-rule="evenodd" clip-rule="evenodd" d="M65.4792 35.4324C42.8371 35.4324 29.43 42.9645 29.43 64.6922C29.43 73.6797 37.7117 83.0215 46.0091 90.7896C53.7977 98.0789 61.7901 104.879 65.4792 104.879C69.1683 104.879 77.1594 98.0796 84.948 90.7896C93.2454 83.0236 101.527 73.6804 101.527 64.6922C101.527 42.9645 88.12 35.4324 65.4792 35.4324ZM50.3233 54.302C50.3233 53.6036 50.5304 52.9209 50.9185 52.3402C51.3065 51.7595 51.8579 51.3069 52.5032 51.0396C53.1484 50.7724 53.8584 50.7024 54.5434 50.8387C55.2283 50.9749 55.8575 51.3112 56.3514 51.8051C56.8452 52.2989 57.1815 52.9281 57.3177 53.6131C57.454 54.2981 57.3841 55.008 57.1168 55.6533C56.8495 56.2985 56.397 56.85 55.8163 57.238C55.2356 57.626 54.5529 57.8331 53.8545 57.8331C52.918 57.8329 52.02 57.4608 51.3578 56.7987C50.6956 56.1365 50.3235 55.2384 50.3233 54.302ZM65.4792 83.9989C59.7629 83.9989 55.1293 80.2455 55.1293 75.6153C55.1293 70.9851 59.7623 67.2317 65.4792 67.2317C71.1962 67.2317 75.8291 70.9851 75.8291 75.6153C75.8291 80.2455 71.1948 83.9989 65.4792 83.9989ZM77.106 57.8324C76.4076 57.8324 75.7249 57.6253 75.1442 57.2373C74.5635 56.8493 74.1109 56.2978 73.8437 55.6526C73.5764 55.0074 73.5065 54.2974 73.6427 53.6124C73.779 52.9274 74.1153 52.2982 74.6091 51.8044C75.103 51.3106 75.7322 50.9743 76.4171 50.838C77.1021 50.7018 77.8121 50.7717 78.4573 51.0389C79.1026 51.3062 79.654 51.7588 80.042 52.3395C80.43 52.9202 80.6371 53.6029 80.6371 54.3013C80.6372 54.7653 80.5458 55.2248 80.3682 55.6535C80.1906 56.0822 79.9302 56.4716 79.6019 56.7996C79.2736 57.1275 78.8839 57.3876 78.4551 57.5648C78.0262 57.742 77.5666 57.8329 77.1026 57.8324H77.106ZM25.8845 56.7956C18.6294 57.0008 15.9792 47.066 18.9994 41.3333C22.0401 35.9022 25.5063 34.7676 27.8754 34.7676C30.7862 34.7676 34.1799 35.4577 35.8521 39.0503C30.75 43.0465 27.2407 48.7984 25.8845 56.7976" fill="white"/>
<path fill-rule="evenodd" clip-rule="evenodd" d="M65.4793 0.574463C67.5564 0.592245 68.8682 12.8483 70.0446 15.4369C70.6471 16.7644 71.7127 16.0525 72.5067 14.0294C74.5489 8.83496 78.5602 2.09552 79.53 2.35405C80.4998 2.61257 79.7748 9.82392 79.1942 15.2304C78.9343 17.644 79.822 17.9866 81.2911 16.0511C81.7699 15.4219 84.5295 11.7547 85.6881 12.0364C85.9617 12.1048 86.2776 12.3305 86.333 13.7401C86.3734 14.792 87.6469 14.2469 89.4155 12.5856C92.0349 10.1276 94.6038 7.69006 95.1824 8.20027C95.7186 8.67355 94.3781 12.6356 93.1203 16.2905C92.329 18.5878 92.5794 19.691 93.8118 18.8785C94.3521 18.5228 96.2514 17.2924 96.7985 17.9935C96.9401 18.174 97.1719 18.4366 96.607 19.9844C96.2138 21.0636 97.4407 20.8201 99.5007 19.535C102.301 17.789 105.109 16.0723 105.534 16.4676C106.105 16.9929 104.27 20.3558 102.298 23.9943C101.14 26.1295 102.476 26.2998 103.85 25.438C105.311 24.5756 106.864 23.8787 108.48 23.3603C109.259 23.1735 112.383 21.1792 109.831 27.8564C109.385 29.0239 110.591 29.361 111.636 29.1107C114.446 28.4418 115.622 27.8947 118.835 27.8947C119.103 27.8593 119.376 27.8902 119.63 27.9847C119.883 28.0793 120.11 28.2346 120.289 28.4371C120.694 29.0731 120.298 30.0716 116.297 34.1704C115.807 34.6724 115.886 35.1218 117.355 35.4316C126.034 37.2666 125.472 38.8301 125.34 39.2678C125.203 39.7164 123.512 40.282 121.304 41.403C119.763 42.184 120.229 43.502 122.362 44.6592C128.029 47.7369 127.709 48.9399 127.647 49.2012C127.597 49.4152 127.481 49.8393 126.246 50.1662C125.285 50.4172 125.87 51.4027 127.495 52.6598C128.96 53.8006 130.186 54.78 129.977 55.3134C129.767 55.8469 128.267 56.0384 126.415 56.3482C124.373 56.6779 123.789 57.7681 125.005 59.0196C126.852 60.9073 126.578 61.3949 126.373 61.6329C126.13 61.8183 125.851 61.9524 125.554 62.027C125.258 62.1017 124.949 62.1154 124.647 62.0672C123.675 62.0323 124.031 62.4181 124.459 62.7129C125.348 63.3284 129.714 66.774 129.557 67.5052C129.493 67.8389 128.213 67.6002 126.411 67.2316C124.653 66.8807 123.838 66.5018 124.124 67.5736C124.409 68.6453 122.969 69.3128 121.853 69.4632C121.181 69.5441 120.505 69.5791 119.828 69.5679C117.696 69.5679 117.329 71.5998 116.146 73.4957C111.136 81.484 101.046 86.9007 93.9178 87.7378C100.023 81.1618 105.698 73.0826 105.698 64.6894C105.698 63.4016 105.652 62.1589 105.567 60.9627C115.879 60.752 119.97 47.5905 115.648 39.3868L115.624 39.3403L115.597 39.2938C112.955 34.5746 108.792 30.5935 103.081 30.5914C98.2033 30.5914 93.9212 32.3266 91.6082 36.7133C84.7005 32.7971 75.6665 31.2596 65.4773 31.2596C55.2881 31.2596 46.2589 32.7978 39.3464 36.7133C37.0334 32.3272 32.752 30.5908 27.8728 30.5914C22.1647 30.5914 18.001 34.576 15.3569 39.2938L15.3309 39.3403L15.3063 39.3868C10.9845 47.5905 15.0744 60.752 25.3874 60.9627C25.299 62.203 25.2552 63.446 25.2561 64.6894C25.2561 73.0833 30.9327 81.1625 37.0361 87.7378C29.9068 86.9 19.8168 81.484 14.8084 73.4957C13.6238 71.5992 13.2579 69.5679 11.1254 69.5679C10.4492 69.5792 9.77309 69.5442 9.10168 69.4632C7.98482 69.3128 6.54447 68.6466 6.83035 67.5736C7.11623 66.5005 6.30099 66.8794 4.54397 67.2316C2.74182 67.6009 1.46082 67.8403 1.3979 67.5052C1.2406 66.774 5.60748 63.3291 6.49522 62.7129C6.92063 62.4174 7.27969 62.0289 6.30851 62.0672C6.00614 62.1153 5.69718 62.1016 5.40025 62.0269C5.10333 61.9523 4.82461 61.8183 4.58091 61.6329C4.37573 61.3949 4.10216 60.9073 5.94876 59.0196C7.16342 57.7681 6.58003 56.6779 4.5385 56.3482C2.69189 56.0377 1.18725 55.8428 0.975915 55.3134C0.76458 54.7841 1.99292 53.8006 3.45721 52.6598C5.08223 51.4027 5.66835 50.4165 4.70743 50.1662C3.47157 49.8393 3.3553 49.4139 3.30606 49.2012C3.24382 48.9392 2.92511 47.7382 8.5901 44.6592C10.7246 43.5013 11.189 42.184 9.64882 41.403C7.44041 40.282 5.75043 39.7157 5.61364 39.2678C5.48164 38.8301 4.91945 37.2666 13.5978 35.4316C15.0655 35.1218 15.1462 34.6724 14.6566 34.1704C10.6556 30.0716 10.2582 29.0731 10.6645 28.4371C10.8441 28.2346 11.0707 28.0793 11.3243 27.9847C11.5779 27.8902 11.8508 27.8593 12.1192 27.8947C15.3336 27.8947 16.5073 28.4418 19.3175 29.1107C20.3626 29.3597 21.5683 29.0239 21.1217 27.8564C18.5693 21.1799 21.6935 23.1735 22.4732 23.3603C24.089 23.8787 25.6419 24.5756 27.1034 25.438C28.4781 26.2991 29.8124 26.1295 28.6559 23.9943C26.6828 20.3558 24.8478 16.9929 25.4195 16.4676C25.847 16.0723 28.6525 17.789 31.4525 19.535C33.5139 20.8201 34.7401 21.0643 34.3462 19.9844C33.7813 18.4366 34.0131 18.174 34.1554 17.9935C34.7025 17.2924 36.6018 18.5228 37.1414 18.8785C38.3725 19.6917 38.6249 18.5878 37.8335 16.2905C36.5744 12.6362 35.2346 8.67355 35.7715 8.20027C36.3501 7.68938 38.9176 10.1269 41.5377 12.5856C43.3077 14.2469 44.5805 14.792 44.6215 13.7401C44.6756 12.3305 44.9922 12.1035 45.2665 12.0364C46.4251 11.7547 49.1854 15.4219 49.6628 16.0511C51.1312 17.9859 52.0196 17.6433 51.7604 15.2304C51.1784 9.82392 50.4609 2.60915 51.4239 2.35405C52.3869 2.09894 56.405 8.83496 58.4485 14.0294C59.244 16.0525 60.3095 16.7651 60.9107 15.4369C62.0857 12.8483 63.3975 0.595665 65.4759 0.574463" fill="white"/>
<path fill-rule="evenodd" clip-rule="evenodd" d="M105.074 56.7956C112.329 57.0008 114.979 47.066 111.96 41.3333C108.917 35.9022 105.452 34.7676 103.082 34.7676C100.171 34.7676 96.779 35.4577 95.1068 39.0503C100.209 43.0465 103.718 48.7984 105.073 56.7976M65.4756 71.5425C62.1551 71.5425 59.457 73.3665 59.457 75.6166C59.457 77.8668 62.1544 79.6887 65.4756 79.6887C68.7968 79.6887 71.4983 77.8668 71.4983 75.6166C71.4983 73.3665 68.8009 71.5425 65.4756 71.5425ZM65.4756 74.0915C62.8767 74.0915 60.9945 75.7507 61.0417 75.1919C61.1785 73.5833 63.709 72.6477 65.4756 72.6477C67.2422 72.6477 69.7721 73.5826 69.9095 75.1919C69.9574 75.75 68.0766 74.0915 65.4756 74.0915Z" fill="white"/>
</svg>
